<svg xmlns="http://www.w3.org/2000/svg" width="1200" height="440" viewBox="0 0 1200 440"><style>text{font-family:Arial,sans-serif;fill:#17212B}.title{font-size:25px;font-weight:700}.sub{font-size:14px;fill:#5C6770}.axis{font-size:12px;fill:#5C6770}.label{font-size:13px}.value{font-size:12px;font-weight:700}</style><text x="40" y="38" class="title">Observed default rate by dti band</text><text x="40" y="62" class="sub">Analytical bands for portfolio monitoring, not feature engineering.</text><text x="275" y="99" text-anchor="end" class="label">&lt;10</text><rect x="285" y="80" width="450.9" height="23" fill="#B33A3A" rx="2"/><text x="743.9" y="98" class="value">8.97</text><text x="275" y="134" text-anchor="end" class="label">10–20</text><rect x="285" y="115" width="546.7" height="23" fill="#B33A3A" rx="2"/><text x="839.7" y="133" class="value">10.87</text><text x="275" y="169" text-anchor="end" class="label">20–30</text><rect x="285" y="150" width="693.7" height="23" fill="#B33A3A" rx="2"/><text x="986.7" y="168" class="value">13.80</text><text x="275" y="204" text-anchor="end" class="label">30–40</text><rect x="285" y="185" width="815.0" height="23" fill="#B33A3A" rx="2"/><text x="1108.0" y="203" class="value">16.21</text><text x="275" y="239" text-anchor="end" class="label">40+</text><rect x="285" y="220" width="382.4" height="23" fill="#B33A3A" rx="2"/><text x="675.4" y="238" class="value">7.61</text><text x="275" y="274" text-anchor="end" class="label">Missing</text><rect x="285" y="255" width="204.4" height="23" fill="#B33A3A" rx="2"/><text x="497.4" y="273" class="value">4.07</text></svg>