<svg xmlns="http://www.w3.org/2000/svg" width="1200" height="440" viewBox="0 0 1200 440"><style>text{font-family:Arial,sans-serif;fill:#17212B}.title{font-size:25px;font-weight:700}.sub{font-size:14px;fill:#5C6770}.axis{font-size:12px;fill:#5C6770}.label{font-size:13px}.value{font-size:12px;font-weight:700}</style><text x="40" y="38" class="title">Observed default rate by home ownership</text><text x="40" y="62" class="sub">Charged Off or Default / all originated loans; interpret with vintage mix.</text><text x="275" y="99" text-anchor="end" class="label">OTHER</text><rect x="285" y="80" width="815.0" height="23" fill="#B33A3A" rx="2"/><text x="1108.0" y="98" class="value">14.84</text><text x="275" y="134" text-anchor="end" class="label">RENT</text><rect x="285" y="115" width="761.8" height="23" fill="#B33A3A" rx="2"/><text x="1054.8" y="133" class="value">13.87</text><text x="275" y="169" text-anchor="end" class="label">NONE</text><rect x="285" y="150" width="712.2" height="23" fill="#B33A3A" rx="2"/><text x="1005.2" y="168" class="value">12.96</text><text x="275" y="204" text-anchor="end" class="label">OWN</text><rect x="285" y="185" width="648.5" height="23" fill="#B33A3A" rx="2"/><text x="941.5" y="203" class="value">11.80</text><text x="275" y="239" text-anchor="end" class="label">MORTGAGE</text><rect x="285" y="220" width="566.2" height="23" fill="#B33A3A" rx="2"/><text x="859.2" y="238" class="value">10.31</text><text x="275" y="274" text-anchor="end" class="label">ANY</text><rect x="285" y="255" width="308.9" height="23" fill="#B33A3A" rx="2"/><text x="601.9" y="273" class="value">5.62</text><text x="275" y="309" text-anchor="end" class="label">Missing</text><rect x="285" y="290" width="0.0" height="23" fill="#B33A3A" rx="2"/><text x="293.0" y="308" class="value">0.00</text></svg>