<svg xmlns="http://www.w3.org/2000/svg" width="1200" height="625" viewBox="0 0 1200 625"><style>text{font-family:Arial,sans-serif;fill:#17212B}.title{font-size:25px;font-weight:700}.sub{font-size:14px;fill:#5C6770}.axis{font-size:12px;fill:#5C6770}.label{font-size:13px}.value{font-size:12px;font-weight:700}</style><text x="40" y="38" class="title">Loan purpose distribution</text><text x="40" y="62" class="sub">Loan count</text><text x="275" y="99" text-anchor="end" class="label">debt_consolidation</text><rect x="285" y="80" width="815.0" height="23" fill="#1F6AA5" rx="2"/><text x="1108.0" y="98" class="value">1,277,877</text><text x="275" y="134" text-anchor="end" class="label">credit_card</text><rect x="285" y="115" width="329.7" height="23" fill="#1F6AA5" rx="2"/><text x="622.7" y="133" class="value">516,971</text><text x="275" y="169" text-anchor="end" class="label">home_improvement</text><rect x="285" y="150" width="96.0" height="23" fill="#1F6AA5" rx="2"/><text x="389.0" y="168" class="value">150,457</text><text x="275" y="204" text-anchor="end" class="label">other</text><rect x="285" y="185" width="88.9" height="23" fill="#1F6AA5" rx="2"/><text x="381.9" y="203" class="value">139,440</text><text x="275" y="239" text-anchor="end" class="label">major_purchase</text><rect x="285" y="220" width="32.2" height="23" fill="#1F6AA5" rx="2"/><text x="325.2" y="238" class="value">50,445</text><text x="275" y="274" text-anchor="end" class="label">medical</text><rect x="285" y="255" width="17.5" height="23" fill="#1F6AA5" rx="2"/><text x="310.5" y="273" class="value">27,488</text><text x="275" y="309" text-anchor="end" class="label">small_business</text><rect x="285" y="290" width="15.7" height="23" fill="#1F6AA5" rx="2"/><text x="308.7" y="308" class="value">24,689</text><text x="275" y="344" text-anchor="end" class="label">car</text><rect x="285" y="325" width="15.3" height="23" fill="#1F6AA5" rx="2"/><text x="308.3" y="343" class="value">24,013</text><text x="275" y="379" text-anchor="end" class="label">vacation</text><rect x="285" y="360" width="9.9" height="23" fill="#1F6AA5" rx="2"/><text x="302.9" y="378" class="value">15,525</text><text x="275" y="414" text-anchor="end" class="label">moving</text><rect x="285" y="395" width="9.8" height="23" fill="#1F6AA5" rx="2"/><text x="302.8" y="413" class="value">15,403</text><text x="275" y="449" text-anchor="end" class="label">house</text><rect x="285" y="430" width="9.0" height="23" fill="#1F6AA5" rx="2"/><text x="302.0" y="448" class="value">14,136</text><text x="275" y="484" text-anchor="end" class="label">wedding</text><rect x="285" y="465" width="1.5" height="23" fill="#1F6AA5" rx="2"/><text x="294.5" y="483" class="value">2,355</text><text x="275" y="519" text-anchor="end" class="label">renewable_energy</text><rect x="285" y="500" width="0.9" height="23" fill="#1F6AA5" rx="2"/><text x="293.9" y="518" class="value">1,445</text><text x="275" y="554" text-anchor="end" class="label">educational</text><rect x="285" y="535" width="0.3" height="23" fill="#1F6AA5" rx="2"/><text x="293.3" y="553" class="value">424</text><text x="275" y="589" text-anchor="end" class="label">Missing</text><rect x="285" y="570" width="0.0" height="23" fill="#1F6AA5" rx="2"/><text x="293.0" y="588" class="value">33</text></svg>